<?xml version="1.0" encoding="utf-8"?>
<!-- Generator: Adobe Illustrator 24.2.1, SVG Export Plug-In . SVG Version: 6.00 Build 0)  -->
<svg version="1.1" id="Layer_1" xmlns="http://www.w3.org/2000/svg" xmlns:xlink="http://www.w3.org/1999/xlink" x="0px" y="0px"
	 viewBox="0 0 800 600" style="enable-background:new 0 0 800 600;" xml:space="preserve">
<style type="text/css">
	.st0{fill:#1A1A1A;}
</style>
<g>
	<path class="st0" d="M241,263.4v91.2h-17.5v-91.2H197v-18.2h58l8.3,18.2H241z"/>
	<path class="st0" d="M271.3,281.9l16.6,36.2l19.7-35.6c0.3-0.8,1.4-0.8,1.8,0l19.8,35.6l16.4-36.2h18.7l-35.5,72.9l-20.3-46.9
		L288,354.7l-35.4-72.9H271.3z"/>
	<path class="st0" d="M427.9,322.1h-49.4c0.4,5.7,2.3,10.2,5.5,13.5c3.3,3.3,7.4,5,12.5,5c4,0,7.2-0.9,9.8-2.8
		c2.5-1.9,5.4-5.4,8.7-10.5l13.4,7.5c-2.1,3.5-4.3,6.6-6.6,9.1c-2.3,2.5-4.8,4.6-7.4,6.2s-5.5,2.8-8.6,3.6c-3.1,0.8-6.4,1.1-10,1.1
		c-10.3,0-18.5-3.3-24.8-9.9c-6.2-6.7-9.3-15.5-9.3-26.5c0-10.9,3-19.7,9.1-26.5c6.1-6.7,14.1-10,24.2-10c10.1,0,18.2,3.2,24.1,9.7
		c5.8,6.4,8.8,15.3,8.8,26.7L427.9,322.1z M411.6,309c-2.2-8.5-7.6-12.7-16.1-12.7c-1.9,0-3.7,0.3-5.4,0.9c-1.7,0.6-3.2,1.4-4.6,2.5
		c-1.4,1.1-2.6,2.4-3.6,4s-1.7,3.3-2.3,5.3H411.6z"/>
	<path class="st0" d="M459,297.6v57.1h-16.8v-57.1H435v-15.7h7.2v-18.3H459v18.3h8l7.2,15.7H459z"/>
	<path class="st0" d="M530.3,286.7v21.2c-3.6-4.4-6.9-7.5-9.8-9.1c-2.8-1.7-6.2-2.6-10-2.6c-6,0-11,2.1-15,6.3c-4,4.2-6,9.5-6,15.8
		c0,6.5,1.9,11.8,5.7,16c3.9,4.2,8.8,6.2,14.8,6.2c3.8,0,7.2-0.8,10.1-2.5c2.8-1.6,6.2-4.7,10-9.4v21.1c-6.5,3.4-12.9,5-19.4,5
		c-10.7,0-19.6-3.4-26.8-10.3c-7.2-6.9-10.8-15.6-10.8-25.9s3.6-19,10.9-26.1c7.3-7.1,16.2-10.6,26.8-10.6
		C517.8,281.8,524.2,283.4,530.3,286.7z"/>
	<path class="st0" d="M541.9,263.6h16.4v26c5.8-5.3,12.3-7.9,19.3-7.9c8,0,14.4,2.6,19.3,7.8c4.1,4.5,6.1,11.7,6.1,21.7v43.5h-16.4
		v-42c0-5.7-1-9.8-3-12.4s-5.3-3.8-9.7-3.8c-5.7,0-9.8,1.8-12.1,5.3c-2.3,3.6-3.4,9.8-3.4,18.5v34.4h-16.4V263.6z"/>
</g>
</svg>
